<?xml version="1.0" standalone="no"?>
<!DOCTYPE svg PUBLIC "-//W3C//DTD SVG 20010904//EN"
 "http://www.w3.org/TR/2001/REC-SVG-20010904/DTD/svg10.dtd">
<svg version="1.0" xmlns="http://www.w3.org/2000/svg"
 width="600.000000pt" height="600.000000pt" viewBox="0 0 600.000000 600.000000"
 preserveAspectRatio="xMidYMid meet">
<metadata>
Created by potrace 1.14, written by Peter Selinger 2001-2017
</metadata>
<g transform="translate(0.000000,600.000000) scale(0.100000,-0.100000)"
fill="#000000" stroke="none">
<path d="M5628 5756 c-1 -2 -59 -6 -128 -10 -69 -3 -143 -9 -165 -12 -22 -3
-98 -14 -170 -24 -181 -25 -562 -138 -735 -217 -202 -92 -420 -211 -560 -306
-50 -33 -222 -159 -230 -167 -3 -3 -30 -25 -60 -50 -233 -190 -474 -445 -680
-720 -94 -126 -96 -128 -120 -114 -47 26 -131 46 -198 46 -209 0 -448 -137
-728 -416 -103 -104 -154 -160 -265 -293 -96 -115 -369 -501 -369 -521 0 -6
12 -19 28 -30 l27 -20 60 56 c47 43 237 204 390 330 59 49 258 189 338 238
164 102 304 159 365 148 32 -6 62 -31 62 -52 0 -24 -62 -132 -76 -132 -7 0
-16 -10 -20 -22 -4 -13 -44 -114 -90 -226 -46 -112 -84 -207 -84 -211 0 -4 39
-48 88 -98 l87 -90 -60 -23 c-178 -67 -421 -244 -625 -456 -107 -111 -173
-194 -285 -359 -92 -136 -243 -335 -316 -420 -149 -169 -350 -344 -536 -468
-109 -72 -349 -200 -395 -211 -39 -9 -35 -27 5 -20 275 49 577 184 911 406 48
33 85 54 80 46 -9 -16 -53 -75 -76 -103 -9 -11 -65 -81 -124 -155 -59 -74
-113 -140 -119 -146 -5 -7 -32 -38 -60 -70 -175 -205 -431 -467 -567 -581 -22
-18 -37 -33 -34 -33 11 0 162 93 241 148 126 88 346 254 510 385 133 107 432
353 445 367 3 3 50 43 105 90 55 47 102 87 105 90 3 3 21 19 40 35 41 36 48
48 -136 -212 -184 -259 -414 -609 -414 -629 0 -2 -10 -21 -23 -42 -13 -20 -40
-68 -61 -107 l-38 -70 73 80 c101 109 420 427 499 496 36 32 99 85 140 119 41
34 86 72 100 84 14 12 63 50 109 86 394 306 563 468 728 695 54 76 153 224
153 231 0 2 17 32 38 66 34 57 61 114 76 160 4 14 24 -2 94 -73 l88 -90 144
61 c80 34 214 95 298 136 162 77 177 80 202 34 16 -30 12 -63 -16 -142 -56
-154 -213 -389 -448 -668 -79 -95 -94 -111 -198 -225 -30 -33 -69 -76 -86 -95
-18 -19 -32 -38 -32 -42 0 -4 10 -19 23 -33 l22 -26 160 107 c722 483 1093
908 1093 1255 0 69 -24 163 -50 196 -6 7 2 19 24 35 218 158 395 297 474 373
160 152 320 319 399 416 173 213 324 446 435 670 33 68 69 140 80 160 66 124
191 555 224 774 8 55 18 116 21 135 3 19 9 123 12 230 4 148 9 199 20 211 12
14 11 17 -5 21 -10 3 -57 6 -105 7 -47 1 -95 4 -106 6 -10 2 -21 2 -23 1z"/>
</g>
</svg>
